<svg width="14" height="18" viewBox="0 0 14 18" fill="none" xmlns="http://www.w3.org/2000/svg">
<path fill-rule="evenodd" clip-rule="evenodd" d="M12.25 12.2728C12.25 14.3858 10.14 16.5 7 16.5C3.85996 16.5 1.75 14.3858 1.75 12.2728C1.75 10.0812 3.17545 7.3518 4.85089 4.97573C5.60815 3.90179 6.36815 2.96632 6.96248 2.27526C7.56811 3.02032 8.35396 4.03453 9.13696 5.17914C9.95336 6.37256 10.7474 7.67986 11.3325 8.95219C11.9283 10.2478 12.25 11.3855 12.25 12.2728ZM0.25 12.2728C0.25 8.19524 4.09842 3.27823 5.98358 1.11422C6.59508 0.412278 7 0 7 0C7 0 7.38793 0.428826 7.97778 1.14716C9.84843 3.42525 13.75 8.61504 13.75 12.2728C13.75 15.4359 10.7279 18 7 18C3.27208 18 0.25 15.4359 0.25 12.2728ZM3.62375 9.75H5.23744C4.93382 10.443 4.75 11.1001 4.75 11.6592C4.75 12.5176 5.58973 13.5 7 13.5V15C4.92893 15 3.25 13.5043 3.25 11.6592C3.25 11.0435 3.39325 10.395 3.62375 9.75Z" fill="#343348"/>
</svg>
