<svg width="20" height="20" viewBox="0 0 20 20" fill="none" xmlns="http://www.w3.org/2000/svg">
<path d="M11 9C11 8.46957 10.7893 7.96086 10.4142 7.58579C10.0391 7.21071 9.53043 7 9 7C8.46957 7 7.96086 7.21071 7.58579 7.58579C7.21071 7.96086 7 8.46957 7 9C7 9.53043 7.21071 10.0391 7.58579 10.4142C7.96086 10.7893 8.46957 11 9 11C9.53043 11 10.0391 10.7893 10.4142 10.4142C10.7893 10.0391 11 9.53043 11 9Z" fill="white" fill-opacity="0.9"/>
<path fill-rule="evenodd" clip-rule="evenodd" d="M10 18C7.87827 18 5.84344 17.1571 4.34315 15.6569C2.84285 14.1566 2 12.1217 2 10C2 7.87827 2.84285 5.84344 4.34315 4.34315C5.84344 2.84285 7.87827 2 10 2C12.1217 2 14.1566 2.84285 15.6569 4.34315C17.1571 5.84344 18 7.87827 18 10C18 12.1217 17.1571 14.1566 15.6569 15.6569C14.1566 17.1571 12.1217 18 10 18V18ZM9 5C9.70534 4.9999 10.3982 5.18631 11.0082 5.54032C11.6183 5.89434 12.1239 6.40338 12.4738 7.01582C12.8236 7.62826 13.0054 8.32232 13.0005 9.02764C12.9956 9.73296 12.8043 10.4245 12.446 11.032L14.707 13.292C14.8946 13.4795 15.0001 13.7339 15.0002 13.9991C15.0002 14.1305 14.9744 14.2606 14.9242 14.3819C14.874 14.5033 14.8003 14.6136 14.7075 14.7065C14.6147 14.7994 14.5044 14.8731 14.3831 14.9234C14.2618 14.9737 14.1317 14.9997 14.0004 14.9997C13.7351 14.9998 13.4806 14.8945 13.293 14.707L11.032 12.446C10.5022 12.7583 9.90743 12.9442 9.29406 12.9892C8.68069 13.0343 8.06518 12.9373 7.49539 12.7058C6.92559 12.4743 6.41685 12.1146 6.0087 11.6545C5.60056 11.1944 5.304 10.6464 5.14208 10.0531C4.98016 9.45975 4.95724 8.83708 5.07511 8.23345C5.19297 7.62982 5.44844 7.0615 5.82166 6.57266C6.19488 6.08382 6.67579 5.68763 7.22703 5.41487C7.77826 5.14212 8.38497 5.00015 9 5V5Z" fill="white" fill-opacity="0.9"/>
</svg>
