<svg width="24" height="26" viewBox="0 0 24 26" fill="none" xmlns="http://www.w3.org/2000/svg">
<g filter="url(#filter0_d_11_1672)">
<path d="M13 9C13 8.46957 12.7893 7.96086 12.4142 7.58579C12.0391 7.21071 11.5304 7 11 7C10.4696 7 9.96086 7.21071 9.58579 7.58579C9.21071 7.96086 9 8.46957 9 9C9 9.53043 9.21071 10.0391 9.58579 10.4142C9.96086 10.7893 10.4696 11 11 11C11.5304 11 12.0391 10.7893 12.4142 10.4142C12.7893 10.0391 13 9.53043 13 9Z" fill="white" fill-opacity="0.9"/>
<path fill-rule="evenodd" clip-rule="evenodd" d="M12 18C9.87827 18 7.84344 17.1571 6.34315 15.6569C4.84285 14.1566 4 12.1217 4 10C4 7.87827 4.84285 5.84344 6.34315 4.34315C7.84344 2.84285 9.87827 2 12 2C14.1217 2 16.1566 2.84285 17.6569 4.34315C19.1571 5.84344 20 7.87827 20 10C20 12.1217 19.1571 14.1566 17.6569 15.6569C16.1566 17.1571 14.1217 18 12 18V18ZM11 5C11.7053 4.9999 12.3982 5.18631 13.0082 5.54032C13.6183 5.89434 14.1239 6.40338 14.4738 7.01582C14.8236 7.62826 15.0054 8.32232 15.0005 9.02764C14.9956 9.73296 14.8043 10.4245 14.446 11.032L16.707 13.292C16.8946 13.4795 17.0001 13.7339 17.0002 13.9991C17.0002 14.1305 16.9744 14.2606 16.9242 14.3819C16.874 14.5033 16.8003 14.6136 16.7075 14.7065C16.6147 14.7994 16.5044 14.8731 16.3831 14.9234C16.2618 14.9737 16.1317 14.9997 16.0004 14.9997C15.7351 14.9998 15.4806 14.8945 15.293 14.707L13.032 12.446C12.5022 12.7583 11.9074 12.9442 11.2941 12.9892C10.6807 13.0343 10.0652 12.9373 9.49539 12.7058C8.92559 12.4743 8.41685 12.1146 8.0087 11.6545C7.60056 11.1944 7.304 10.6464 7.14208 10.0531C6.98016 9.45975 6.95724 8.83708 7.07511 8.23345C7.19297 7.62982 7.44844 7.0615 7.82166 6.57266C8.19488 6.08382 8.67579 5.68763 9.22703 5.41487C9.77826 5.14212 10.385 5.00015 11 5V5Z" fill="white" fill-opacity="0.9"/>
</g>
<defs>
<filter id="filter0_d_11_1672" x="-2" y="0" width="28" height="28" filterUnits="userSpaceOnUse" color-interpolation-filters="sRGB">
<feFlood flood-opacity="0" result="BackgroundImageFix"/>
<feColorMatrix in="SourceAlpha" type="matrix" values="0 0 0 0 0 0 0 0 0 0 0 0 0 0 0 0 0 0 127 0" result="hardAlpha"/>
<feOffset dy="4"/>
<feGaussianBlur stdDeviation="2"/>
<feComposite in2="hardAlpha" operator="out"/>
<feColorMatrix type="matrix" values="0 0 0 0 0 0 0 0 0 0 0 0 0 0 0 0 0 0 0.25 0"/>
<feBlend mode="normal" in2="BackgroundImageFix" result="effect1_dropShadow_11_1672"/>
<feBlend mode="normal" in="SourceGraphic" in2="effect1_dropShadow_11_1672" result="shape"/>
</filter>
</defs>
</svg>
