<svg width="16" height="16" viewBox="0 0 16 16" fill="none" xmlns="http://www.w3.org/2000/svg">
<path fill-rule="evenodd" clip-rule="evenodd" d="M8 16C10.1217 16 12.1566 15.1571 13.6569 13.6569C15.1571 12.1566 16 10.1217 16 8C16 5.87827 15.1571 3.84344 13.6569 2.34315C12.1566 0.842855 10.1217 0 8 0C5.87827 0 3.84344 0.842855 2.34315 2.34315C0.842855 3.84344 0 5.87827 0 8C0 10.1217 0.842855 12.1566 2.34315 13.6569C3.84344 15.1571 5.87827 16 8 16ZM9 3C8.29466 2.9999 7.60184 3.18631 6.99178 3.54032C6.38172 3.89434 5.87612 4.40338 5.52624 5.01582C5.17636 5.62826 4.99465 6.32232 4.99952 7.02764C5.0044 7.73296 5.19569 8.42445 5.554 9.032L3.293 11.292C3.10536 11.4795 2.99989 11.7339 2.9998 11.9991C2.99975 12.1305 3.02558 12.2606 3.0758 12.3819C3.12602 12.5033 3.19966 12.6136 3.2925 12.7065C3.38534 12.7994 3.49558 12.8731 3.61691 12.9234C3.73824 12.9737 3.8683 12.9997 3.99965 12.9997C4.26492 12.9998 4.51936 12.8945 4.707 12.707L6.968 10.446C7.49785 10.7583 8.09257 10.9442 8.70594 10.9892C9.31931 11.0343 9.93482 10.9373 10.5046 10.7058C11.0744 10.4743 11.5832 10.1146 11.9913 9.65449C12.3994 9.19441 12.696 8.64641 12.8579 8.05308C13.0198 7.45975 13.0428 6.83708 12.9249 6.23345C12.807 5.62982 12.5516 5.0615 12.1783 4.57266C11.8051 4.08382 11.3242 3.68763 10.773 3.41487C10.2217 3.14212 9.61503 3.00015 9 3Z" fill="#3F3F46"/>
</svg>
